# xmcd CD database file
#
# Track frame offsets:
#	183
#	22288
#	36080
#	58510
#	73320
#	86600
#	96848
#	113268
#	128018
#	148940
#	171623
#	178295
#
# Disc length: 2572 seconds
#
# Revision: 2
# Processed by: cddbd v1.5.2PL0 Copyright (c) Steve Scherf et al.
# Submitted via: CDex 1.70beta2
#
DISCID=b20a0a0c
DTITLE=John Denver - An Evening With John Denver {2}
DYEAR=1975
DGENRE=
TTITLE0=My Sweet Lady
TTITLE1=Annie's Other Song
TTITLE2=Boy From The Country
TTITLE3=Rhymes And Reasons
TTITLE4=Forest Lawn
TTITLE5=Pickin' The Sun Down
TTITLE6=Thank God I'm A Country Boy
TTITLE7=Take Me Home, Country Roads
TTITLE8=Poems, Prayers And Promises
TTITLE9=Rocky Mountain High
TTITLE10=Introduction Of "This Old Guitar"
TTITLE11=This Old Guitar
EXTD=YEAR: 1975
EXTT0=
EXTT1=
EXTT2=
EXTT3=
EXTT4=
EXTT5=
EXTT6=
EXTT7=
EXTT8=
EXTT9=
EXTT10=
EXTT11=
PLAYORDER=
